<svg xmlns="http://www.w3.org/2000/svg" width="56" viewBox="0 0 42 42" height="56" version="1.0"><defs><clipPath id="a"><path d="M.488 0h41.024v41.023H.488Zm0 0"/></clipPath></defs><g clip-path="url(#a)"><path d="M41.492 20.512a20.262 20.262 0 0 1-.394 4c-.13.66-.293 1.308-.489 1.953a20.22 20.22 0 0 1-1.535 3.715c-.316.593-.66 1.168-1.035 1.726a20.12 20.12 0 0 1-1.2 1.617c-.425.52-.874 1.016-1.347 1.493A21.26 21.26 0 0 1 34 36.367c-.52.426-1.059.824-1.613 1.2a20.76 20.76 0 0 1-1.727 1.03c-.594.321-1.2.606-1.816.864a21.003 21.003 0 0 1-3.848 1.168 21.2 21.2 0 0 1-3.996.394c-.672 0-1.34-.035-2.008-.101A21.475 21.475 0 0 1 17 40.629a20.924 20.924 0 0 1-3.844-1.168 19.31 19.31 0 0 1-1.816-.863 20.76 20.76 0 0 1-1.727-1.032A20.301 20.301 0 0 1 8 36.367a21.26 21.26 0 0 1-1.492-1.351 20.073 20.073 0 0 1-2.547-3.11 19.782 19.782 0 0 1-1.035-1.726 20.902 20.902 0 0 1-1.54-3.715 22.293 22.293 0 0 1-.488-1.953c-.128-.66-.226-1.32-.293-1.992a20.262 20.262 0 0 1-.097-2.008c0-.672.031-1.344.097-2.012.067-.668.165-1.332.293-1.992a20.32 20.32 0 0 1 2.027-5.664c.317-.594.66-1.168 1.036-1.727a20.073 20.073 0 0 1 2.547-3.11c.476-.476.972-.925 1.492-1.35a19.387 19.387 0 0 1 1.613-1.2 19.782 19.782 0 0 1 1.727-1.035 20.653 20.653 0 0 1 3.71-1.54C15.692.688 16.345.524 17 .396A20.247 20.247 0 0 1 21 0a20.262 20.262 0 0 1 3.996.395c.66.128 1.309.292 1.953.488a20.653 20.653 0 0 1 5.438 2.574 20.778 20.778 0 0 1 3.105 2.55c.473.477.922.973 1.348 1.493.426.52.828 1.059 1.2 1.617.374.559.718 1.133 1.034 1.727a20.304 20.304 0 0 1 2.024 5.664 20.247 20.247 0 0 1 .394 4.004Zm0 0"/></g><path fill="#fff" d="M23.527 18.582 33.551 7.02h-2.364l-8.722 10.039-6.8-9.782h-7.75L18.18 21.992l-10.426 12h2.418L19.25 23.52 26.559 34h7.691Zm-3.175 3.664-1.067-1.527-8.242-11.813h3.77l6.55 9.422 1.059 1.527 8.703 12.512H27.41Zm0 0"/></svg>